<svg width="20" height="20" viewBox="0 0 20 20" fill="none" xmlns="http://www.w3.org/2000/svg">
<path d="M20 10C20 15.5228 15.5228 20 10 20C4.47715 20 0 15.5228 0 10C0 4.47715 4.47715 0 10 0C15.5228 0 20 4.47715 20 10ZM1.31145 10C1.31145 14.7986 5.20145 18.6885 10 18.6885C14.7986 18.6885 18.6885 14.7986 18.6885 10C18.6885 5.20145 14.7986 1.31145 10 1.31145C5.20145 1.31145 1.31145 5.20145 1.31145 10Z" fill="#EB5252"/>
<path d="M10.812 9.99974L13.654 7.15774C13.7599 7.04969 13.8188 6.90422 13.8181 6.75294C13.8173 6.60166 13.7569 6.45679 13.6499 6.34982C13.5429 6.24285 13.3981 6.18241 13.2468 6.18165C13.0955 6.18088 12.95 6.23985 12.842 6.34574L9.99998 9.18774L7.15798 6.34574C7.04994 6.23985 6.90447 6.18088 6.75318 6.18165C6.6019 6.18241 6.45704 6.24285 6.35006 6.34982C6.24309 6.45679 6.18266 6.60166 6.18189 6.75294C6.18113 6.90422 6.2401 7.04969 6.34598 7.15774L9.18798 9.99974L6.34598 12.8417C6.2401 12.9498 6.18113 13.0953 6.18189 13.2465C6.18266 13.3978 6.24309 13.5427 6.35006 13.6497C6.45704 13.7566 6.6019 13.8171 6.75318 13.8178C6.90447 13.8186 7.04994 13.7596 7.15798 13.6537L9.99998 10.8117L12.842 13.6537C12.95 13.7596 13.0955 13.8186 13.2468 13.8178C13.3981 13.8171 13.5429 13.7566 13.6499 13.6497C13.7569 13.5427 13.8173 13.3978 13.8181 13.2465C13.8188 13.0953 13.7599 12.9498 13.654 12.8417L10.812 9.99974Z" fill="#EB5252"/>
</svg>
